<svg xmlns="http://www.w3.org/2000/svg" viewBox="0 0 196.85 335.09"><defs><style>.cls-1{fill:#374421;}</style></defs><g id="Layer_2" data-name="Layer 2"><g id="Layer_1-2" data-name="Layer 1"><path class="cls-1" d="M190.89,100,156.41,58.31a3,3,0,0,0-2.31-1.09H104.43a3,3,0,0,1-3-3V3a3,3,0,0,0-3-3h0a3,3,0,0,0-3,3V54.22a3,3,0,0,1-3,3H42.75a3,3,0,0,0-2.31,1.09L6,100a3,3,0,0,1-2.31,1.09H3a3,3,0,0,0-3,3v228a3,3,0,0,0,3,3H193.85a3,3,0,0,0,3-3v-228a3,3,0,0,0-3-3h-.65A3,3,0,0,1,190.89,100Zm-37.3-35.73L180,96.22a3,3,0,0,1-2.31,4.91H113.39a3,3,0,0,1-2-5.25L147.82,64a3,3,0,0,1,2-.74h1.47A3,3,0,0,1,153.59,64.31Zm-20,4.16L100.4,97.55a3,3,0,0,1-4,0L63.28,68.47a3,3,0,0,1,2-5.25h66.33A3,3,0,0,1,133.57,68.47Zm-88-5.25h1.47A3,3,0,0,1,49,64L85.44,95.88a3,3,0,0,1-2,5.25H19.21a3,3,0,0,1-2.31-4.91L43.26,64.31A3,3,0,0,1,45.58,63.22ZM187.85,329.09H9a3,3,0,0,1-3-3V110.26a3,3,0,0,1,3-3H187.85a3,3,0,0,1,3,3V326.09A3,3,0,0,1,187.85,329.09Z"/><path class="cls-1" d="M6,207.34s58.77,1.17,104.38,26.7c29.79,15.49,80.47,0,80.47,0v98.17H4.08Z"/></g></g></svg>