<svg xmlns="http://www.w3.org/2000/svg" xmlns:xlink="http://www.w3.org/1999/xlink" viewBox="0 0 3000 893.11"><defs><style>.cls-1{fill:none;}.cls-2{fill:#9ec462;}.cls-3{fill:url(#New_Pattern);}</style><pattern id="New_Pattern" data-name="New Pattern" width="180.33" height="129.33" patternUnits="userSpaceOnUse" viewBox="0 0 180.33 129.33"><rect class="cls-1" width="180.33" height="129.33"/><path class="cls-2" d="M212.67,106.67h.22a1,1,0,0,1,1,1v77.78a1,1,0,0,1-1,1H147.77a1,1,0,0,1-1-1V107.7a1,1,0,0,1,1-1H148a1,1,0,0,0,.79-.37l11.77-14.24a1,1,0,0,1,.79-.37h16.94a1,1,0,0,0,1-1V73.19a1,1,0,0,1,1-1h0a1,1,0,0,1,1,1V90.67a1,1,0,0,0,1,1h17a1.06,1.06,0,0,1,.79.37l11.76,14.24A1,1,0,0,0,212.67,106.67ZM198.36,93.74h-.5a1.06,1.06,0,0,0-.68.25l-12.42,10.89a1,1,0,0,0,.68,1.79h21.92a1,1,0,0,0,.79-1.67l-9-10.89A1,1,0,0,0,198.36,93.74Zm-6.71,0H169a1,1,0,0,0-.68,1.79l11.32,9.92a1,1,0,0,0,1.35,0l11.31-9.92A1,1,0,0,0,191.65,93.74Zm-30.14.37-9,10.89a1,1,0,0,0,.78,1.67h21.93a1,1,0,0,0,.67-1.79L163.48,94a1.06,1.06,0,0,0-.68-.25h-.5A1,1,0,0,0,161.51,94.11Zm50.36,89.32V109.79a1,1,0,0,0-1-1h-61a1,1,0,0,0-1,1v73.64a1,1,0,0,0,1,1h61A1,1,0,0,0,211.87,183.43Z"/><path class="cls-2" d="M32.34,106.67h.22a1,1,0,0,1,1,1v77.78a1,1,0,0,1-1,1H-32.56a1,1,0,0,1-1-1V107.7a1,1,0,0,1,1-1h.22a1,1,0,0,0,.79-.37l11.76-14.24a1.06,1.06,0,0,1,.79-.37H-2a1,1,0,0,0,1-1V73.19a1,1,0,0,1,1-1H0a1,1,0,0,1,1,1V90.67a1,1,0,0,0,1,1H19a1.06,1.06,0,0,1,.79.37L31.55,106.3A1,1,0,0,0,32.34,106.67ZM18,93.74h-.5a1.06,1.06,0,0,0-.68.25L4.43,104.88a1,1,0,0,0,.68,1.79H27a1,1,0,0,0,.79-1.67l-9-10.89A1,1,0,0,0,18,93.74Zm-6.71,0H-11.32A1,1,0,0,0-12,95.53l11.32,9.92a1,1,0,0,0,1.34,0L12,95.53A1,1,0,0,0,11.32,93.74Zm-30.14.37-9,10.89a1,1,0,0,0,.79,1.67H-5.11a1,1,0,0,0,.68-1.79L-16.85,94a1.06,1.06,0,0,0-.68-.25H-18A1,1,0,0,0-18.82,94.11Zm50.36,89.32V109.79a1,1,0,0,0-1-1h-61a1,1,0,0,0-1,1v73.64a1,1,0,0,0,1,1h61A1,1,0,0,0,31.54,183.43Z"/><path class="cls-2" d="M212.67-22.66h.22a1,1,0,0,1,1,1V56.14a1,1,0,0,1-1,1H147.77a1,1,0,0,1-1-1V-21.64a1,1,0,0,1,1-1H148a1,1,0,0,0,.79-.37l11.77-14.24a1,1,0,0,1,.79-.37h16.94a1,1,0,0,0,1-1V-56.14a1,1,0,0,1,1-1h0a1,1,0,0,1,1,1v17.47a1,1,0,0,0,1,1h17a1,1,0,0,1,.79.37L211.88-23A1,1,0,0,0,212.67-22.66ZM198.36-35.6h-.5a1,1,0,0,0-.68.26L184.76-24.45a1,1,0,0,0,.68,1.79h21.92a1,1,0,0,0,.79-1.68l-9-10.89A1,1,0,0,0,198.36-35.6Zm-6.71,0H169a1,1,0,0,0-.68,1.8l11.32,9.92a1,1,0,0,0,1.35,0l11.31-9.92A1,1,0,0,0,191.65-35.6Zm-30.14.37-9,10.89a1,1,0,0,0,.78,1.68h21.93a1,1,0,0,0,.67-1.79L163.48-35.34a1,1,0,0,0-.68-.26h-.5A1,1,0,0,0,161.51-35.23ZM211.87,54.1V-19.55a1,1,0,0,0-1-1h-61a1,1,0,0,0-1,1V54.1a1,1,0,0,0,1,1h61A1,1,0,0,0,211.87,54.1Z"/><path class="cls-2" d="M148.8,13.58s20,.4,35.61,9.11c10.17,5.28,27.46,0,27.46,0V56.18H148.14Z"/><path class="cls-2" d="M122.5,42h.23a1,1,0,0,1,1,1v77.78a1,1,0,0,1-1,1H57.61a1,1,0,0,1-1-1V43a1,1,0,0,1,1-1h.22a1,1,0,0,0,.79-.38L70.38,27.39a1,1,0,0,1,.79-.37h17a1,1,0,0,0,1-1V8.52a1,1,0,0,1,1-1h0a1,1,0,0,1,1,1V26a1,1,0,0,0,1,1h17a1,1,0,0,1,.79.37l11.76,14.24A1,1,0,0,0,122.5,42ZM108.2,29.07h-.51a1,1,0,0,0-.67.25L94.6,40.21a1,1,0,0,0,.67,1.8h21.92a1,1,0,0,0,.79-1.68l-9-10.89A1.06,1.06,0,0,0,108.2,29.07Zm-6.72,0H78.85a1,1,0,0,0-.68,1.79l11.32,9.92a1,1,0,0,0,1.35,0l11.32-9.92A1,1,0,0,0,101.48,29.07Zm-30.14.37-9,10.89A1,1,0,0,0,63.14,42H85.06a1,1,0,0,0,.68-1.8L73.31,29.32a1,1,0,0,0-.67-.25h-.51A1.06,1.06,0,0,0,71.34,29.44Zm50.36,89.32V45.12a1,1,0,0,0-1-1h-61a1,1,0,0,0-1,1v73.64a1,1,0,0,0,1,1h61A1,1,0,0,0,121.7,118.76Z"/><path class="cls-2" d="M58.63,78.25s20.05.39,35.62,9.1c10.16,5.29,27.45,0,27.45,0v33.5H58Z"/><path class="cls-2" d="M32.34-22.66h.22a1,1,0,0,1,1,1V56.14a1,1,0,0,1-1,1H-32.56a1,1,0,0,1-1-1V-21.64a1,1,0,0,1,1-1h.22a1,1,0,0,0,.79-.37l11.76-14.24a1,1,0,0,1,.79-.37H-2a1,1,0,0,0,1-1V-56.14a1,1,0,0,1,1-1H0a1,1,0,0,1,1,1v17.47a1,1,0,0,0,1,1H19a1,1,0,0,1,.79.37L31.55-23A1,1,0,0,0,32.34-22.66ZM18-35.6h-.5a1,1,0,0,0-.68.26L4.43-24.45a1,1,0,0,0,.68,1.79H27a1,1,0,0,0,.79-1.68l-9-10.89A1,1,0,0,0,18-35.6Zm-6.71,0H-11.32A1,1,0,0,0-12-33.8L-.67-23.88a1,1,0,0,0,1.34,0L12-33.8A1,1,0,0,0,11.32-35.6Zm-30.14.37-9,10.89A1,1,0,0,0-27-22.66H-5.11a1,1,0,0,0,.68-1.79L-16.85-35.34a1,1,0,0,0-.68-.26H-18A1,1,0,0,0-18.82-35.23ZM31.54,54.1V-19.55a1,1,0,0,0-1-1h-61a1,1,0,0,0-1,1V54.1a1,1,0,0,0,1,1h61A1,1,0,0,0,31.54,54.1Z"/><path class="cls-2" d="M-31.54,13.58s20.06.4,35.62,9.11c10.16,5.28,27.46,0,27.46,0V56.18H-32.19Z"/></pattern></defs><g id="Layer_2" data-name="Layer 2"><g id="Layer_1-2" data-name="Layer 1"><rect class="cls-3" width="3000" height="893.11"/></g></g></svg>